<svg width="100" height="100" viewBox="0 0 100 100" fill="none" xmlns="http://www.w3.org/2000/svg">
<path d="M79.1664 43.7499H42.5289L52.6914 33.5874C53.8638 32.4155 54.5228 30.8258 54.5231 29.168C54.5235 27.5103 53.8654 25.9203 52.6935 24.7478C51.5215 23.5753 49.9318 22.9164 48.2741 22.916C46.6163 22.9156 45.0263 23.5738 43.8539 24.7457L28.9122 39.6874C26.1821 42.425 24.6489 46.1336 24.6489 49.9999C24.6489 53.8662 26.1821 57.5747 28.9122 60.3124L43.8539 75.254C45.0263 76.426 46.6163 77.0841 48.2741 77.0837C49.9318 77.0834 51.5215 76.4244 52.6935 75.252C53.8654 74.0795 54.5235 72.4895 54.5231 70.8317C54.5228 69.174 53.8638 67.5843 52.6914 66.4124L42.5289 56.2499H79.1664C80.824 56.2499 82.4137 55.5914 83.5858 54.4193C84.7579 53.2472 85.4164 51.6575 85.4164 49.9999C85.4164 48.3423 84.7579 46.7526 83.5858 45.5805C82.4137 44.4084 80.824 43.7499 79.1664 43.7499Z" fill="#374957"/>
</svg>
