<svg width="114" height="114" viewBox="0 0 114 114" fill="none" xmlns="http://www.w3.org/2000/svg">
<g clip-path="url(#clip0_818_289)">
<path d="M90.2507 9.5V0H76.0007V9.5H64.1257V0H49.8757V9.5H38.0007V0H23.7507V9.5H9.50073V97.375C9.50073 101.784 11.2523 106.013 14.3701 109.131C17.4879 112.248 21.7165 114 26.1257 114H87.8757C92.285 114 96.5136 112.248 99.6314 109.131C102.749 106.013 104.501 101.784 104.501 97.375V9.5H90.2507ZM90.2507 97.375C90.2507 98.0049 90.0005 98.609 89.5551 99.0544C89.1097 99.4998 88.5056 99.75 87.8757 99.75H26.1257C25.4958 99.75 24.8918 99.4998 24.4464 99.0544C24.001 98.609 23.7507 98.0049 23.7507 97.375V23.75H90.2507V97.375ZM80.7507 47.5H33.2507V33.25H80.7507V47.5ZM61.7507 71.25H33.2507V57H61.7507V71.25Z" fill="black"/>
</g>
<defs>
<clipPath id="clip0_818_289">
<rect width="114" height="114" fill="white"/>
</clipPath>
</defs>
</svg>
