<svg width="100" height="100" viewBox="0 0 100 100" fill="none" xmlns="http://www.w3.org/2000/svg">
<g clip-path="url(#clip0_818_282)">
<path d="M95.9923 37.0168C85.8739 21.4053 68.5989 11.9104 49.9957 11.7358C31.3927 11.9104 14.1177 21.4053 3.99923 37.0168C-1.33308 44.8423 -1.33308 55.1339 3.99923 62.9596C14.112 78.5807 31.388 88.0854 49.9959 88.2656C68.5989 88.0911 85.8739 78.5962 95.9925 62.9847C101.336 55.1533 101.336 44.848 95.9923 37.0168ZM85.6387 55.8644C77.9135 68.1175 64.4805 75.5932 49.9957 75.7006C35.5111 75.5934 22.078 68.1175 14.3527 55.8644C11.9443 52.3262 11.9443 47.6751 14.3527 44.1371C22.0778 31.884 35.5109 24.4083 49.9957 24.3009C64.4803 24.4081 77.9133 31.884 85.6387 44.1371C88.0471 47.6751 88.0471 52.3262 85.6387 55.8644Z" fill="#374957"/>
<path d="M49.9953 66.7533C59.248 66.7533 66.7487 59.2526 66.7487 50C66.7487 40.7473 59.248 33.2466 49.9953 33.2466C40.7427 33.2466 33.2419 40.7473 33.2419 50C33.2419 59.2526 40.7427 66.7533 49.9953 66.7533Z" fill="#374957"/>
</g>
<defs>
<clipPath id="clip0_818_282">
<rect width="100" height="100" fill="white"/>
</clipPath>
</defs>
</svg>
