<svg width="100" height="100" viewBox="0 0 100 100" fill="none" xmlns="http://www.w3.org/2000/svg">
<g clip-path="url(#clip0_818_304)">
<path d="M98.1717 89.3561L78.8169 69.9931C93.299 50.6399 89.3502 23.2107 69.997 8.72855C50.6438 -5.75362 23.2146 -1.80481 8.73245 17.5484C-5.74971 36.9016 -1.8009 64.3308 17.5523 78.813C33.0984 90.4463 54.4507 90.4463 69.997 78.813L89.36 98.1759C91.7933 100.609 95.7384 100.609 98.1715 98.1759C100.605 95.7426 100.605 91.7975 98.1715 89.3644L98.1717 89.3561ZM43.936 75.0757C26.7358 75.0757 12.7924 61.1324 12.7924 43.9321C12.7924 26.7319 26.7358 12.7885 43.936 12.7885C61.1363 12.7885 75.0796 26.7319 75.0796 43.9321C75.0613 61.1246 61.1287 75.0574 43.936 75.0757Z" fill="#023047"/>
</g>
<defs>
<clipPath id="clip0_818_304">
<rect width="100" height="100" fill="white"/>
</clipPath>
</defs>
</svg>
