<svg width="85" height="85" viewBox="0 0 85 85" fill="none" xmlns="http://www.w3.org/2000/svg">
<g clip-path="url(#clip0_818_294)">
<path d="M6.31426 19.1501L0.768009 10.0905L16.7055 0.354492L22.2518 9.39637L6.31426 19.1501ZM75.7309 62.7303L65.8957 78.6678L74.9376 84.2495L84.7728 68.312L75.7309 62.7303ZM74.0451 52.3674L57.4311 79.3089C56.5262 80.8354 55.2828 82.1339 53.7968 83.104C52.3108 84.0742 50.622 84.6903 48.8603 84.9047C48.3563 84.9681 47.8489 85 47.3409 85.0003C45.8024 85.0012 44.2789 84.6974 42.8583 84.1066C41.4377 83.5158 40.1482 82.6495 39.0641 81.5578L35.2213 77.7222C32.4044 80.2265 28.7369 81.5596 24.9693 81.4487C21.2017 81.3378 17.619 79.7913 14.9542 77.1256C12.2894 74.4599 10.7441 70.8766 10.6345 67.109C10.5248 63.3414 11.8592 59.6744 14.3645 56.8582L3.44197 45.9287C2.21188 44.6974 1.27062 43.2084 0.686216 41.569C0.101807 39.9297 -0.111167 38.181 0.062681 36.4492C0.236529 34.7175 0.792858 33.0461 1.69148 31.5556C2.59009 30.0651 3.80856 28.7929 5.25884 27.8307L31.4388 11.8153C36.4649 8.59572 42.3358 6.94542 48.3033 7.07473C54.2708 7.20403 60.0646 9.10708 64.9466 12.5414L71.9449 5.53949L79.4603 13.0549L72.462 20.0497C75.7373 24.7432 77.6225 30.2652 77.9013 35.9817C78.1801 41.6982 76.8411 47.3775 74.038 52.3674H74.0451ZM61.5784 23.5205C58.4194 20.3328 54.2618 18.3262 49.8007 17.8362C45.3397 17.3463 40.8457 18.4027 37.0701 20.8289L10.9786 36.7947C10.7737 36.9763 10.6468 37.2301 10.6245 37.503C10.6064 37.6681 10.626 37.8352 10.6818 37.9916C10.7376 38.1481 10.8282 38.2898 10.9468 38.4062L46.5618 74.0353C46.6802 74.1602 46.8271 74.2544 46.99 74.31C47.1528 74.3655 47.3268 74.3806 47.4968 74.3541C47.6663 74.3365 47.8292 74.2785 47.9716 74.1848C48.1139 74.0911 48.2317 73.9645 48.3149 73.8157L64.8863 46.9557C66.947 43.2176 67.7379 38.9113 67.14 34.6849C66.5422 30.4585 64.5879 26.5405 61.5713 23.5205H61.5784Z" fill="black"/>
</g>
<defs>
<clipPath id="clip0_818_294">
<rect width="85" height="85" fill="white"/>
</clipPath>
</defs>
</svg>
