<svg width="114" height="114" viewBox="0 0 114 114" fill="none" xmlns="http://www.w3.org/2000/svg">
<path d="M28.4631 40.375C28.4631 38.4853 29.2147 36.6731 30.5527 35.3369C31.8906 34.0007 33.7052 33.25 35.5973 33.25C37.4894 33.25 39.3041 34.0007 40.642 35.3369C41.9799 36.6731 42.7316 38.4853 42.7316 40.375C42.7316 42.2647 41.9799 44.0769 40.642 45.4131C39.3041 46.7493 37.4894 47.5 35.5973 47.5C33.7052 47.5 31.8906 46.7493 30.5527 45.4131C29.2147 44.0769 28.4631 42.2647 28.4631 40.375ZM54.6219 38C56.514 38 58.3287 37.2493 59.6666 35.9131C61.0045 34.5769 61.7561 32.7647 61.7561 30.875C61.7561 28.9853 61.0045 27.1731 59.6666 25.8369C58.3287 24.5007 56.514 23.75 54.6219 23.75C52.7298 23.75 50.9152 24.5007 49.5773 25.8369C48.2393 27.1731 47.4877 28.9853 47.4877 30.875C47.4877 32.7647 48.2393 34.5769 49.5773 35.9131C50.9152 37.2493 52.7298 38 54.6219 38ZM109.318 74.6842V92.625C109.311 98.2921 107.054 103.725 103.042 107.732C99.0296 111.74 93.5894 113.994 87.915 114H26.085C20.4106 113.994 14.9704 111.74 10.958 107.732C6.94559 103.725 4.68865 98.2921 4.68236 92.625V74.6842C3.25634 73.8449 2.07432 72.6484 1.25313 71.213C0.43194 69.7777 0 68.1531 0 66.5C0 64.8469 0.43194 63.2223 1.25313 61.787C2.07432 60.3516 3.25634 59.1551 4.68236 58.3158V43.396C4.6962 31.8901 9.27929 20.8595 17.4262 12.724C25.5731 4.58852 36.6185 0.0125706 48.1393 0L65.8607 0C77.3815 0.0125706 88.4269 4.58852 96.5738 12.724C104.721 20.8595 109.304 31.8901 109.318 43.396V58.3158C110.744 59.1551 111.926 60.3516 112.747 61.787C113.568 63.2223 114 64.8469 114 66.5C114 68.1531 113.568 69.7777 112.747 71.213C111.926 72.6484 110.744 73.8449 109.318 74.6842ZM18.9508 43.396V57H95.0492V43.396C95.0391 35.6683 91.9605 28.26 86.4887 22.7961C81.0168 17.3322 73.5984 14.2588 65.8607 14.25H48.1393C40.4016 14.2588 32.9832 17.3322 27.5113 22.7961C22.0395 28.26 18.9609 35.6683 18.9508 43.396V43.396ZM95.0492 92.625V76H80.7807C65.894 76 65.6467 77.3632 54.6219 86.925C52.1791 89.0699 49.0377 90.2529 45.785 90.2529C42.5323 90.2529 39.3909 89.0699 36.9481 86.925C29.2812 80.275 26.5226 76.722 18.9508 76.1235V92.625C18.9508 94.5147 19.7024 96.3269 21.0404 97.6631C22.3783 98.9993 24.1929 99.75 26.085 99.75H87.915C89.8071 99.75 91.6217 98.9993 92.9596 97.6631C94.2976 96.3269 95.0492 94.5147 95.0492 92.625Z" fill="black"/>
</svg>
