<svg width="319" height="95" viewBox="0 0 319 95" fill="none" xmlns="http://www.w3.org/2000/svg">
<path d="M20.368 26.608V94H3.952V26.608H20.368ZM23.344 13.072L0.208 22.768V11.44L23.344 0.303993V13.072ZM29.0005 67.216C29.0005 61.648 30.1205 56.784 32.3605 52.624C34.6645 48.464 37.8325 45.264 41.8645 43.024C45.9605 40.784 50.6325 39.664 55.8805 39.664C62.6005 39.664 68.2005 41.424 72.6805 44.944C77.2245 48.464 80.2005 53.424 81.6085 59.824H64.1365C62.6645 55.728 59.8165 53.68 55.5925 53.68C52.5845 53.68 50.1845 54.864 48.3925 57.232C46.6005 59.536 45.7045 62.864 45.7045 67.216C45.7045 71.568 46.6005 74.928 48.3925 77.296C50.1845 79.6 52.5845 80.752 55.5925 80.752C59.8165 80.752 62.6645 78.704 64.1365 74.608H81.6085C80.2005 80.88 77.2245 85.808 72.6805 89.392C68.1365 92.976 62.5365 94.768 55.8805 94.768C50.6325 94.768 45.9605 93.648 41.8645 91.408C37.8325 89.168 34.6645 85.968 32.3605 81.808C30.1205 77.648 29.0005 72.784 29.0005 67.216ZM114.774 94.768C109.526 94.768 104.79 93.648 100.566 91.408C96.4055 89.168 93.1095 85.968 90.6775 81.808C88.3095 77.648 87.1255 72.784 87.1255 67.216C87.1255 61.712 88.3415 56.88 90.7735 52.72C93.2055 48.496 96.5335 45.264 100.758 43.024C104.982 40.784 109.718 39.664 114.966 39.664C120.214 39.664 124.95 40.784 129.174 43.024C133.398 45.264 136.726 48.496 139.158 52.72C141.59 56.88 142.806 61.712 142.806 67.216C142.806 72.72 141.558 77.584 139.062 81.808C136.63 85.968 133.27 89.168 128.982 91.408C124.758 93.648 120.022 94.768 114.774 94.768ZM114.774 80.56C117.91 80.56 120.566 79.408 122.742 77.104C124.982 74.8 126.102 71.504 126.102 67.216C126.102 62.928 125.014 59.632 122.838 57.328C120.726 55.024 118.102 53.872 114.966 53.872C111.766 53.872 109.11 55.024 106.998 57.328C104.886 59.568 103.83 62.864 103.83 67.216C103.83 71.504 104.854 74.8 106.902 77.104C109.014 79.408 111.638 80.56 114.774 80.56ZM184.155 39.856C190.427 39.856 195.419 41.904 199.131 46C202.907 50.032 204.795 55.6 204.795 62.704V94H188.475V64.912C188.475 61.328 187.547 58.544 185.691 56.56C183.835 54.576 181.339 53.584 178.203 53.584C175.067 53.584 172.571 54.576 170.715 56.56C168.859 58.544 167.931 61.328 167.931 64.912V94H151.515V40.432H167.931V47.536C169.595 45.168 171.835 43.312 174.651 41.968C177.467 40.56 180.635 39.856 184.155 39.856ZM266.698 66.352C266.698 67.888 266.602 69.488 266.41 71.152H229.258C229.514 74.48 230.57 77.04 232.426 78.832C234.346 80.56 236.682 81.424 239.434 81.424C243.53 81.424 246.378 79.696 247.978 76.24H265.45C264.554 79.76 262.922 82.928 260.554 85.744C258.25 88.56 255.338 90.768 251.818 92.368C248.298 93.968 244.362 94.768 240.01 94.768C234.762 94.768 230.09 93.648 225.994 91.408C221.898 89.168 218.698 85.968 216.394 81.808C214.09 77.648 212.938 72.784 212.938 67.216C212.938 61.648 214.058 56.784 216.298 52.624C218.602 48.464 221.802 45.264 225.898 43.024C229.994 40.784 234.698 39.664 240.01 39.664C245.194 39.664 249.802 40.752 253.834 42.928C257.866 45.104 261.002 48.208 263.242 52.24C265.546 56.272 266.698 60.976 266.698 66.352ZM249.898 62.032C249.898 59.216 248.938 56.976 247.018 55.312C245.098 53.648 242.698 52.816 239.818 52.816C237.066 52.816 234.73 53.616 232.81 55.216C230.954 56.816 229.802 59.088 229.354 62.032H249.898ZM297.15 94.768C292.478 94.768 288.318 93.968 284.67 92.368C281.022 90.768 278.142 88.592 276.03 85.84C273.918 83.024 272.734 79.888 272.478 76.432H288.702C288.894 78.288 289.758 79.792 291.294 80.944C292.83 82.096 294.718 82.672 296.958 82.672C299.006 82.672 300.574 82.288 301.662 81.52C302.814 80.688 303.39 79.632 303.39 78.352C303.39 76.816 302.59 75.696 300.99 74.992C299.39 74.224 296.798 73.392 293.214 72.496C289.374 71.6 286.174 70.672 283.614 69.712C281.054 68.688 278.846 67.12 276.99 65.008C275.134 62.832 274.206 59.92 274.206 56.272C274.206 53.2 275.038 50.416 276.702 47.92C278.43 45.36 280.926 43.344 284.19 41.872C287.518 40.4 291.454 39.664 295.998 39.664C302.718 39.664 307.998 41.328 311.838 44.656C315.742 47.984 317.982 52.4 318.558 57.904H303.39C303.134 56.048 302.302 54.576 300.894 53.488C299.55 52.4 297.758 51.856 295.518 51.856C293.598 51.856 292.126 52.24 291.102 53.008C290.078 53.712 289.566 54.704 289.566 55.984C289.566 57.52 290.366 58.672 291.966 59.44C293.63 60.208 296.19 60.976 299.646 61.744C303.614 62.768 306.846 63.792 309.342 64.816C311.838 65.776 314.014 67.376 315.87 69.616C317.79 71.792 318.782 74.736 318.846 78.448C318.846 81.584 317.95 84.4 316.158 86.896C314.43 89.328 311.902 91.248 308.574 92.656C305.31 94.064 301.502 94.768 297.15 94.768Z" fill="black"/>
</svg>
