<svg width="99" height="99" viewBox="0 0 99 99" fill="none" xmlns="http://www.w3.org/2000/svg">
<path d="M78.6274 32.3977C78.0528 31.8227 77.3705 31.3666 76.6195 31.0554C75.8686 30.7442 75.0636 30.584 74.2508 30.584C73.4379 30.584 72.633 30.7442 71.882 31.0554C71.131 31.3666 70.4487 31.8227 69.8741 32.3977L50.9569 51.3108C50.5701 51.6974 50.0456 51.9147 49.4987 51.9147C48.9518 51.9147 48.4273 51.6974 48.0405 51.3108L29.1274 32.3977C27.9672 31.2369 26.3934 30.5846 24.7522 30.5842C23.1111 30.5838 21.537 31.2354 20.3762 32.3956C19.2155 33.5558 18.5631 35.1296 18.5627 36.7708C18.5624 38.4119 19.2139 39.986 20.3741 41.1468L39.2914 60.064C40.6321 61.4048 42.2237 62.4684 43.9754 63.1941C45.7272 63.9197 47.6047 64.2932 49.5008 64.2932C51.3968 64.2932 53.2744 63.9197 55.0261 63.1941C56.7778 62.4684 58.3695 61.4048 59.7101 60.064L78.6274 41.1468C79.7874 39.9865 80.439 38.4129 80.439 36.7722C80.439 35.1315 79.7874 33.558 78.6274 32.3977Z" fill="black"/>
</svg>
