<svg width="100" height="100" viewBox="0 0 100 100" fill="none" xmlns="http://www.w3.org/2000/svg">
<g clip-path="url(#clip0_818_306)">
<path d="M95.8337 12.5H75.0003V10.4167C75.0003 7.65399 73.9029 5.00447 71.9494 3.05097C69.9958 1.09747 67.3463 0 64.5837 0L35.417 0C32.6543 0 30.0048 1.09747 28.0513 3.05097C26.0978 5.00447 25.0003 7.65399 25.0003 10.4167V12.5H4.16699V25H12.5003V87.5C12.5003 90.8152 13.8173 93.9946 16.1615 96.3388C18.5057 98.683 21.6851 100 25.0003 100H75.0003C78.3155 100 81.495 98.683 83.8392 96.3388C86.1834 93.9946 87.5003 90.8152 87.5003 87.5V25H95.8337V12.5ZM75.0003 87.5H25.0003V25H75.0003V87.5Z" fill="#BD2020"/>
<path d="M45.833 37.5H33.333V75H45.833V37.5Z" fill="#BD2020"/>
<path d="M66.667 37.5H54.167V75H66.667V37.5Z" fill="#BD2020"/>
</g>
<defs>
<clipPath id="clip0_818_306">
<rect width="100" height="100" fill="white"/>
</clipPath>
</defs>
</svg>
