<svg width="85" height="85" viewBox="0 0 85 85" fill="none" xmlns="http://www.w3.org/2000/svg">
<g clip-path="url(#clip0_818_293)">
<path d="M50.0124 42.5009L83.4444 9.07249C85.5197 6.99721 85.5197 3.63254 83.4444 1.55743C81.3692 -0.517842 78.0045 -0.517842 75.9294 1.55743L42.5009 34.9893L9.07249 1.55743C6.99721 -0.517842 3.63254 -0.517842 1.55743 1.55743C-0.517676 3.63271 -0.517842 6.99738 1.55743 9.07249L34.9893 42.5009L1.55743 75.9294C-0.517842 78.0047 -0.517842 81.3693 1.55743 83.4444C3.63271 85.5195 6.99738 85.5197 9.07249 83.4444L42.5009 50.0124L75.9292 83.4444C78.0045 85.5197 81.3692 85.5197 83.4443 83.4444C85.5195 81.3692 85.5195 78.0045 83.4443 75.9294L50.0124 42.5009Z" fill="#E0E1DD"/>
</g>
<defs>
<clipPath id="clip0_818_293">
<rect width="85" height="85" fill="white"/>
</clipPath>
</defs>
</svg>
