<svg width="114" height="114" viewBox="0 0 114 114" fill="none" xmlns="http://www.w3.org/2000/svg">
<g clip-path="url(#clip0_818_287)">
<path d="M-2.07629e-06 57.0005L26.6713 104.5L99.75 104.5C103.529 104.5 107.154 102.999 109.826 100.327C112.499 97.6544 114 94.0298 114 90.2505L114 23.7505C114 19.9712 112.499 16.3466 109.826 13.6742C107.154 11.0018 103.529 9.50049 99.75 9.50049L26.6712 9.5005L-2.07629e-06 57.0005ZM99.75 90.2505L35.0123 90.2505L16.3447 57.0005L35.0122 23.7505L99.75 23.7505L99.75 90.2505Z" fill="black"/>
<path d="M49.875 57C49.875 53.065 46.685 49.875 42.75 49.875C38.815 49.875 35.625 53.065 35.625 57C35.625 60.935 38.815 64.125 42.75 64.125C46.685 64.125 49.875 60.935 49.875 57Z" fill="black"/>
</g>
<defs>
<clipPath id="clip0_818_287">
<rect width="114" height="114" fill="white" transform="translate(0 114) rotate(-90)"/>
</clipPath>
</defs>
</svg>
