<svg width="100" height="100" viewBox="0 0 100 100" fill="none" xmlns="http://www.w3.org/2000/svg">
<g clip-path="url(#clip0_818_305)">
<path d="M87.5 47.9167V62.5H75C71.6848 62.5 68.5054 63.817 66.1612 66.1612C63.817 68.5054 62.5 71.6848 62.5 75V87.5H18.75C17.0924 87.5 15.5027 86.8415 14.3306 85.6694C13.1585 84.4973 12.5 82.9076 12.5 81.25V18.75C12.5 17.0924 13.1585 15.5027 14.3306 14.3306C15.5027 13.1585 17.0924 12.5 18.75 12.5H56.25C57.9076 12.5 59.4973 11.8415 60.6694 10.6694C61.8415 9.49731 62.5 7.9076 62.5 6.25C62.5 4.5924 61.8415 3.00268 60.6694 1.83058C59.4973 0.65848 57.9076 0 56.25 0L18.75 0C13.7772 0 9.00805 1.97544 5.49175 5.49175C1.97544 9.00805 0 13.7772 0 18.75L0 81.25C0 86.2228 1.97544 90.9919 5.49175 94.5082C9.00805 98.0246 13.7772 100 18.75 100H68.6833C73.6541 100 78.4215 98.0262 81.9375 94.5125L94.5083 81.9417C98.0236 78.4263 99.9989 73.6589 100 68.6875V47.9167C100 46.2591 99.3415 44.6693 98.1694 43.4972C96.9973 42.3251 95.4076 41.6667 93.75 41.6667C92.0924 41.6667 90.5027 42.3251 89.3306 43.4972C88.1585 44.6693 87.5 46.2591 87.5 47.9167Z" fill="#023047"/>
<path d="M74.1372 7.47082L22.0538 59.5542C21.2724 60.3354 20.8332 61.395 20.833 62.5V75C20.833 76.105 21.272 77.1649 22.0534 77.9463C22.8348 78.7277 23.8946 79.1666 24.9997 79.1666H37.4997C38.6047 79.1664 39.6643 78.7273 40.4455 77.9458L91.8247 26.5667C93.5632 24.8901 94.8413 22.7946 95.536 20.4814C96.2307 18.1683 96.3186 15.7153 95.7913 13.3583C95.2014 11.1663 94.0475 9.16701 92.4444 7.55976C90.8413 5.95251 88.845 4.79336 86.6545 4.19778C84.464 3.60221 82.1556 3.59099 79.9594 4.16526C77.7632 4.73952 75.7558 5.87922 74.1372 7.47082V7.47082Z" fill="#023047"/>
</g>
<defs>
<clipPath id="clip0_818_305">
<rect width="100" height="100" fill="white"/>
</clipPath>
</defs>
</svg>
